<svg width="64" height="69" viewBox="0 0 64 69" fill="none" xmlns="http://www.w3.org/2000/svg">
<path fill-rule="evenodd" clip-rule="evenodd" d="M19.108 42.3057C19.1039 42.3099 19.104 42.3167 19.1083 42.3208L23.1477 46.1669C23.9475 46.9284 25.2154 46.8998 25.9801 46.1031L38.0803 33.4952C38.845 32.6985 40.1129 32.6699 40.9127 33.4313L52.6384 44.5952C53.4381 45.3566 54.706 45.3281 55.4707 44.5314L57.9469 41.9515C58.712 41.1543 58.6835 39.8902 57.8833 39.1283L44.7183 26.5941C44.714 26.5901 44.7139 26.5834 44.7179 26.5791V26.5791C44.722 26.5749 44.7219 26.5682 44.7176 26.5641L40.6782 22.718C39.8784 21.9565 38.6104 21.985 37.8458 22.7818L25.7456 35.3896C24.981 36.1863 23.7131 36.2149 22.9133 35.4534L11.1874 24.2894C10.3877 23.528 9.11978 23.5565 8.35513 24.3532L5.87891 26.9332C5.11384 27.7303 5.14232 28.9944 5.94252 29.7563L19.1076 42.2906C19.1119 42.2947 19.1121 42.3014 19.108 42.3057V42.3057Z" fill="#D65CFF"/>
<path d="M5.87891 26.9332L6.96487 27.9679L5.87891 26.9332ZM5.94252 29.7563L6.98078 28.6737L5.94252 29.7563ZM8.35513 24.3532L9.44109 25.388L8.35513 24.3532ZM22.9133 35.4534L21.875 36.536L22.9133 35.4534ZM40.6782 22.718L39.6399 23.8005L40.6782 22.718ZM37.8458 22.7818L38.9318 23.8165L37.8458 22.7818ZM44.7176 26.5641L43.6793 27.6467L44.7176 26.5641ZM44.7183 26.5941L43.68 27.6767L44.7183 26.5941ZM52.6384 44.5952L51.6001 45.6778L52.6384 44.5952ZM40.9127 33.4313L41.9509 32.3487L40.9127 33.4313ZM25.9801 46.1031L27.0661 47.1378L25.9801 46.1031ZM24.186 45.0843L20.1466 41.2382L18.07 43.4033L22.1094 47.2494L24.186 45.0843ZM36.9943 32.4605L24.8941 45.0684L27.0661 47.1378L39.1663 34.5299L36.9943 32.4605ZM39.8744 34.5139L51.6001 45.6778L53.6766 43.5126L41.9509 32.3487L39.8744 34.5139ZM56.5566 45.5661L59.0328 42.9862L56.8609 40.9167L54.3847 43.4967L56.5566 45.5661ZM58.9215 38.0457L45.7565 25.5116L43.68 27.6767L56.845 40.2109L58.9215 38.0457ZM39.6399 23.8005L43.6793 27.6467L45.7559 25.4815L41.7164 21.6354L39.6399 23.8005ZM26.8316 36.4243L38.9318 23.8165L36.7598 21.7471L24.6596 34.3549L26.8316 36.4243ZM23.9515 34.3708L12.2257 23.2068L10.1492 25.372L21.875 36.536L23.9515 34.3708ZM7.26917 23.3185L4.79295 25.8984L6.96487 27.9679L9.44109 25.388L7.26917 23.3185ZM4.90426 30.8389L18.0694 43.3732L20.1459 41.208L6.98078 28.6737L4.90426 30.8389ZM18.0694 43.3732C17.4735 42.8059 17.4523 41.8646 18.022 41.271L20.194 43.3404C20.7719 42.7383 20.7503 41.7834 20.1459 41.208L18.0694 43.3732ZM4.79295 25.8984C3.45407 27.2934 3.50391 29.5056 4.90426 30.8389L6.98078 28.6737C6.78073 28.4832 6.77361 28.1672 6.96487 27.9679L4.79295 25.8984ZM12.2257 23.2068C10.8261 21.8743 8.60731 21.9243 7.26917 23.3185L9.44109 25.388C9.63225 25.1888 9.94922 25.1816 10.1492 25.372L12.2257 23.2068ZM24.6596 34.3549C24.4685 34.554 24.1515 34.5612 23.9515 34.3708L21.875 36.536C23.2746 37.8686 25.4935 37.8185 26.8316 36.4243L24.6596 34.3549ZM41.7164 21.6354C40.3168 20.3028 38.0979 20.3528 36.7598 21.7471L38.9318 23.8165C39.1229 23.6173 39.4399 23.6101 39.6399 23.8005L41.7164 21.6354ZM45.8039 27.6138C46.3818 27.0117 46.3602 26.0569 45.7559 25.4815L43.6793 27.6467C43.0835 27.0794 43.0622 26.138 43.632 25.5444L45.8039 27.6138ZM45.7565 25.5116C46.3525 26.0789 46.3736 27.0203 45.8039 27.6138L43.632 25.5444C43.0541 26.1464 43.0756 27.1013 43.68 27.6767L45.7565 25.5116ZM59.0328 42.9862C60.3717 41.5912 60.3219 39.379 58.9215 38.0457L56.845 40.2109C57.0451 40.4014 57.0522 40.7174 56.8609 40.9167L59.0328 42.9862ZM51.6001 45.6778C52.9997 47.0103 55.2185 46.9603 56.5566 45.5661L54.3847 43.4967C54.1935 43.6958 53.8766 43.703 53.6766 43.5126L51.6001 45.6778ZM39.1663 34.5299C39.3575 34.3307 39.6745 34.3236 39.8744 34.5139L41.9509 32.3487C40.5513 31.0162 38.3325 31.0662 36.9943 32.4605L39.1663 34.5299ZM20.1466 41.2382C20.7424 41.8055 20.7637 42.7468 20.194 43.3404L18.022 41.271C17.4441 41.8731 17.4656 42.8279 18.07 43.4033L20.1466 41.2382ZM22.1094 47.2494C23.509 48.5821 25.7279 48.5321 27.0661 47.1378L24.8941 45.0684C24.703 45.2676 24.386 45.2747 24.186 45.0843L22.1094 47.2494Z" fill="black"/>
</svg>
