<svg width="21" height="20" viewBox="0 0 21 20" fill="none" xmlns="http://www.w3.org/2000/svg">
<path d="M2 17.6777L1.50571 17.6023L1.4054 18.2603L2.06529 18.1734L2 17.6777ZM2 17.6777C1.50571 17.6023 1.50572 17.6023 1.50573 17.6022L1.50577 17.6019L1.50589 17.6012L1.50631 17.5984L1.50785 17.5885L1.51375 17.5512C1.51893 17.5188 1.52659 17.4716 1.53668 17.4115C1.55686 17.2913 1.5868 17.1193 1.62612 16.91C1.70463 16.4919 1.82107 15.9223 1.9725 15.319C2.12342 14.7176 2.31176 14.072 2.53596 13.5059C2.75288 12.9581 3.02981 12.4142 3.38828 12.081L3.72868 12.4473L3.38828 12.081C3.97634 11.5344 4.78723 11.1952 5.67803 11.1952C7.44549 11.1952 8.93656 12.5304 8.93656 14.2591C8.93656 15.1202 8.55633 15.8902 7.96779 16.4372C7.61289 16.7671 7.03608 17.0208 6.45223 17.2205C5.84802 17.4273 5.15759 17.6014 4.51276 17.7412C3.86605 17.8814 3.25526 17.9892 2.80678 18.062C2.58227 18.0984 2.39781 18.1262 2.26909 18.1448C2.20472 18.1542 2.15425 18.1613 2.11963 18.166L2.07984 18.1715L2.06932 18.1729L2.06648 18.1733L2.06568 18.1734L2.06543 18.1734C2.06535 18.1734 2.06529 18.1734 2 17.6777ZM8.97224 4.64845L9.61456 3.97828L8.70153 3.81069L6.5131 3.40901L6.26626 3.3637L6.08244 3.53456L1.6596 7.64541L1.08036 8.18379L1.81512 8.47621L5.14374 9.80091L5.58782 9.97764L5.78438 9.54198C5.90262 9.27991 7.16089 6.53835 8.97224 4.64845ZM10.0915 13.7707L10.3202 13.9833L10.6116 13.871L10.4319 13.4045C10.6116 13.871 10.6117 13.871 10.6118 13.871L10.612 13.8709L10.6127 13.8706L10.6151 13.8697L10.6236 13.8664L10.6549 13.8541C10.682 13.8434 10.7214 13.8277 10.7719 13.8071C10.8729 13.7661 11.0184 13.7057 11.1987 13.6276C11.5592 13.4716 12.0602 13.2444 12.6245 12.9584C13.7444 12.391 15.148 11.5753 16.1882 10.6085C18.7305 8.24557 19.8243 6.10718 20.2315 4.41632C20.6384 2.72635 20.3492 1.5254 20.194 1.05264L20.1119 0.802922L19.8597 0.728897C18.8366 0.428581 14.7681 -0.307917 9.65932 4.44049C8.61791 5.40844 7.73825 6.71591 7.12599 7.75975C6.81761 8.2855 6.57244 8.75243 6.40409 9.08849C6.31984 9.25664 6.25467 9.39237 6.21026 9.4867C6.18805 9.53388 6.17103 9.57073 6.1594 9.59614L6.14602 9.62555L6.14241 9.63356L6.14138 9.63585L6.14107 9.63655L6.14096 9.6368C6.14092 9.63689 6.14088 9.63697 6.59754 9.84059L6.14088 9.63697L5.9953 9.96346L6.25714 10.2068L10.0915 13.7707ZM16.8794 11.4289L16.7077 10.6208L16.0714 11.1477C14.034 12.8346 11.0775 14.007 10.7928 14.118L10.2981 14.3108L10.5203 14.7931L11.9455 17.8869L12.2344 18.5139L12.74 18.0439L17.1629 13.9331L17.3705 13.7401L17.3116 13.4629L16.8794 11.4289ZM12.6146 6.56729C12.6146 5.93714 13.1832 5.358 13.9536 5.358C14.724 5.358 15.2926 5.93714 15.2926 6.56729C15.2926 7.19745 14.724 7.77659 13.9536 7.77659C13.1832 7.77659 12.6146 7.19745 12.6146 6.56729Z" fill="#F45438" stroke="black"/>
</svg>
