<svg width="42" height="42" viewBox="0 0 42 42" fill="none" xmlns="http://www.w3.org/2000/svg">
<path d="M21.4755 35.6824C21.3258 36.143 20.6741 36.143 20.5245 35.6824L18.1608 28.4078C17.6923 26.9657 16.3484 25.9894 14.8321 25.9894H7.18318C6.69881 25.9894 6.49744 25.3695 6.88929 25.0849L13.0774 20.5889C14.3041 19.6977 14.8174 18.1179 14.3489 16.6758L11.9852 9.40122C11.8355 8.94056 12.3628 8.5575 12.7546 8.8422L18.9428 13.3381C20.1695 14.2294 21.8305 14.2294 23.0572 13.3381L29.2454 8.8422C29.6372 8.5575 30.1645 8.94057 30.0148 9.40121L27.6511 16.6758C27.1826 18.1179 27.6959 19.6977 28.9226 20.5889L35.1107 25.0848C35.5026 25.3696 35.3012 25.9894 34.8168 25.9894H27.1679C25.6516 25.9894 24.3077 26.9657 23.8392 28.4078L21.4755 35.6824Z" fill="#F45438" stroke="black" stroke-width="3"/>
</svg>
